# xmcd
#
# Track frame offsets:
#	150
#	12549
#	25249
#	33363
#	45297
#	57743
#	69504
#	82062
#	92815
#	101492
#	114109
#	121942
#
# Disc length: 1785
#
# Revision: 2
# Processed by: cddbd v1.5.1PL0 Copyright (c) Steve Scherf et al.
# Submitted via: dBpowerAMP V4.0
# Normalized: r0:TDELIM( - ),TSWAP
#
DISCID=9606f70c
DTITLE=Various Artist - Country Legends
DYEAR=1900
DGENRE=Country
TTITLE0=Kenny Rogers and The First Edition - Reuben James
TTITLE1=Lynn Anderson - Top Of The World
TTITLE2=Willie Nelson - Things To Remember
TTITLE3=Billie Jo Spears - Look What They've Done To My Song
TTITLE4=Porter Wagoner - Satisfied Mind
TTITLE5=Donna Fargo - The Happiest Girl In The Whole U S A
TTITLE6=Jack Greene - All The Time
TTITLE7=Dolly Parton - It Wasn't God Who Made Honky Tonk Angels
TTITLE8=Waylon Jennings - Love's Gonna Live Here
TTITLE9=Kitty Wells - Makin' Believe
TTITLE10=Don Gibson - Blue Blue Day
TTITLE11=Freddy Fender - Before The Nest Teardrop Falls
EXTD=
EXTT0=
EXTT1=
EXTT2=
EXTT3=
EXTT4=
EXTT5=
EXTT6=
EXTT7=
EXTT8=
EXTT9=
EXTT10=
EXTT11=
PLAYORDER=
